<?xml version="1.0" encoding="utf-8"?>
<svg width="140px" height="88.26102px" viewBox="0 0 140 88.26102" version="1.1" xmlns:xlink="http://www.w3.org/1999/xlink" xmlns="http://www.w3.org/2000/svg">
  <defs>
    <filter id="filter_1">
      <feColorMatrix in="SourceGraphic" type="matrix" values="0 0 0 0 0.19215687 0 0 0 0 0.21960784 0 0 0 0 0.27058825 0 0 0 1 0" />
    </filter>
  </defs>
  <g id="Group">
    <path d="M69.2 52C83.5594 52 95.2 40.3594 95.2 26C95.2 11.6406 83.5594 0 69.2 0C54.8405 0 43.2 11.6406 43.2 26C43.2 40.3594 54.8405 52 69.2 52Z" id="Oval" fill="#FFFFFF" fill-rule="evenodd" stroke="none" />
    <g id="Husk-lyd!" fill="#FFED00" transform="translate(0 49.261017)">
      <path d="M2.81818 7.86364L2.81818 31.1364L5.63636 31.1364L5.63636 20.7273L18.0455 20.7273L18.0455 31.1364L20.8636 31.1364L20.8636 7.86364L18.0455 7.86364L18.0455 18.2273L5.63636 18.2273L5.63636 7.86364L2.81818 7.86364ZM61.4545 7.86364L61.4545 31.1364L64.1364 31.1364L64.1364 24.6023L66.0114 22.8636L72.5455 31.1364L75.9545 31.1364L68.0341 21.1364L75.4091 13.6818L72.0909 13.6818L64.4545 21.4545L64.1364 21.4545L64.1364 7.86364L61.4545 7.86364ZM90.5455 7.86364L90.5455 31.1364L87.8636 31.1364L87.8636 7.86364L90.5455 7.86364ZM119.864 31.5Q117.682 31.5 116.011 30.392Q114.341 29.2841 113.398 27.2557Q112.455 25.2273 112.455 22.4545Q112.455 19.7045 113.398 17.6818Q114.341 15.6591 116.023 14.5568Q117.705 13.4545 119.909 13.4545Q121.614 13.4545 122.608 14.017Q123.602 14.5795 124.131 15.2898Q124.659 16 124.955 16.4545L125.182 16.4545L125.182 7.86364L127.864 7.86364L127.864 31.1364L125.273 31.1364L125.273 28.4545L124.955 28.4545Q124.659 28.9318 124.114 29.6534Q123.568 30.375 122.557 30.9375Q121.545 31.5 119.864 31.5ZM136.455 24.5909L136.682 7.86364L133.591 7.86364L133.818 24.5909L136.455 24.5909ZM57.0909 17.5909L54.6818 18.2727Q54.3295 17.3636 53.5 16.5682Q52.6705 15.7727 50.9091 15.7727Q49.3068 15.7727 48.2443 16.5057Q47.1818 17.2386 47.1818 18.3636Q47.1818 19.3636 47.9091 19.9432Q48.6364 20.5227 50.1818 20.9091L52.7727 21.5455Q57.4091 22.6818 57.4091 26.2727Q57.4091 27.7727 56.5511 28.9545Q55.6932 30.1364 54.1591 30.8182Q52.625 31.5 50.5909 31.5Q47.9205 31.5 46.1705 30.3409Q44.4205 29.1818 43.9545 26.9545L46.5 26.3182Q47.2159 29.1364 50.5455 29.1364Q52.4205 29.1364 53.5284 28.3352Q54.6364 27.5341 54.6364 26.4091Q54.6364 24.5568 52.0455 23.9545L49.1364 23.2727Q46.7386 22.7045 45.6193 21.5057Q44.5 20.3068 44.5 18.5Q44.5 17.0227 45.3352 15.8864Q46.1705 14.75 47.6193 14.1023Q49.0682 13.4545 50.9091 13.4545Q53.5 13.4545 54.983 14.5909Q56.4659 15.7273 57.0909 17.5909ZM37.1364 13.6818L37.1364 24Q37.1364 25.6364 36.4261 26.6932Q35.7159 27.75 34.6761 28.2614Q33.6364 28.7727 32.6364 28.7727Q30.9659 28.7727 29.892 27.6364Q28.8182 26.5 28.8182 24.5909L28.8182 13.6818L26.1364 13.6818L26.1364 24.7727Q26.1364 28.1136 27.7273 29.7386Q29.3182 31.3636 31.7727 31.3636Q33.75 31.3636 35.0455 30.4375Q36.3409 29.5114 36.9545 28.1818L37.1364 28.1818L37.1364 31.1364L39.8182 31.1364L39.8182 13.6818L37.1364 13.6818ZM95.9659 37.5739Q96.5 37.6818 97.1818 37.6818Q100.83 37.6818 102.318 33.6818L109.727 13.6818L106.818 13.6818L102 27.5909L101.818 27.5909L97 13.6818L94.0909 13.6818L100.545 31.2273L100.045 32.5909Q99.5568 33.9205 98.9716 34.517Q98.3864 35.1136 97.6364 35.1818Q96.8864 35.25 95.9091 35L95.2273 37.3636Q95.4318 37.4659 95.9659 37.5739ZM120.227 29.0909Q122.648 29.0909 123.938 27.233Q125.227 25.375 125.227 22.4091Q125.227 19.4773 123.955 17.6705Q122.682 15.8636 120.227 15.8636Q118.523 15.8636 117.392 16.733Q116.261 17.6023 115.699 19.0852Q115.136 20.5682 115.136 22.4091Q115.136 24.2727 115.71 25.7898Q116.284 27.3068 117.415 28.1989Q118.545 29.0909 120.227 29.0909ZM133.693 30.7159Q134.295 31.3182 135.136 31.3182Q135.977 31.3182 136.58 30.7159Q137.182 30.1136 137.182 29.2727Q137.182 28.4318 136.58 27.8295Q135.977 27.2273 135.136 27.2273Q134.295 27.2273 133.693 27.8295Q133.091 28.4318 133.091 29.2727Q133.091 30.1136 133.693 30.7159Z" />
    </g>
    <g id="Speaker-03" transform="translate(59.902954 15.572174)" filter="url(#filter_1)">
      <path d="M7.59982 1.24192C8.33926 0.50248 9.60357 1.02619 9.60357 2.07191L9.60357 18.6297C9.60357 19.6754 8.33926 20.1991 7.59982 19.4597L2.7592 14.619L1.17377 14.619C0.525518 14.619 0 14.0935 0 13.4453L0 7.25632C0 6.60806 0.525518 6.08255 1.17377 6.08255L2.7592 6.08255L7.59982 1.24192ZM7.46944 4.39041L3.98697 7.87288C3.76685 8.093 3.4683 8.21666 3.15699 8.21666L2.13413 8.21666L2.13413 12.4849L3.15699 12.4849C3.4683 12.4849 3.76685 12.6086 3.98697 12.8287L7.46944 16.3112L7.46944 4.39041Z" id="Shape" fill="#283238" fill-rule="evenodd" stroke="none" />
      <path d="M20.2742 10.8843C20.2742 5.61618 16.6383 1.19725 11.739 0L11.739 2.21333C15.4456 3.35291 18.1401 6.80396 18.1401 10.8843C18.1401 14.9654 15.4447 18.417 11.7369 19.5559L11.7369 21.7691C16.6372 20.5726 20.2742 16.1532 20.2742 10.8843Z" id="Path" fill="#7D909B" fill-rule="evenodd" stroke="none" />
      <path d="M16.0059 10.8843C16.0059 8.0003 14.2457 5.52742 11.741 4.48136L11.741 6.89336C13.026 7.75505 13.8718 9.22088 13.8718 10.8843C13.8718 12.5487 13.025 14.0153 11.7387 14.8768L11.7387 17.2882C14.2447 16.2427 16.0059 13.7692 16.0059 10.8843Z" id="Path" fill="#7D909B" fill-rule="evenodd" stroke="none" />
    </g>
  </g>
</svg>